# xmcd
#
# Track frame offsets: 
#        150
#        17646
#        35161
#        53996
#        70260
#        88828
#        103858
#        117653
#
# Disc length: 1876 seconds
#
# Revision: 1
# Processed by: cddbd v1.5.2PL0 Copyright (c) Steve Scherf et al.
# Submitted via: ExactAudioCopy v1.1
#
DISCID=73075208
DTITLE=Franco Cerri - Franco Cerri And His European Jazz Stars
DYEAR=1959
DGENRE=Jazz
TTITLE0=Foxology
TTITLE1=East Of The Sun
TTITLE2=Felixin
TTITLE3=General Riff
TTITLE4=Flavio's Blues
TTITLE5=Just One Of Those Things
TTITLE6=Pennies From Heaven
TTITLE7=Runnin' Wild
EXTD=YEAR: 1959
EXTT0=
EXTT1=
EXTT2=
EXTT3=
EXTT4=
EXTT5=
EXTT6=
EXTT7=
PLAYORDER=
